# Blender v2.78 (sub 0) OBJ File: 'ARDEMO.blend'
# www.blender.org
mtllib House.mtl
o Town.010_mesh1481924206.015
v 0.190842 0.121225 -0.069260
v 0.187457 0.120558 -0.069218
v 0.184740 0.122994 -0.128107
v 0.188164 0.123661 -0.128148
v 0.184725 0.126299 -0.127946
v 0.187343 0.123863 -0.069057
v 0.190725 0.124529 -0.069098
v 0.188146 0.126966 -0.127987
v 0.201111 0.238817 -0.000601
v 0.195783 0.238373 -0.001167
v 0.194687 0.331621 0.012598
v 0.200078 0.332081 0.013158
v 0.194036 0.330711 0.017889
v 0.195184 0.237480 0.004121
v 0.200508 0.237924 0.004688
v 0.199420 0.331168 0.018454
v 0.201727 0.279162 0.052149
v 0.196373 0.278891 0.052658
v 0.194213 0.287799 -0.041113
v 0.199568 0.288071 -0.041623
v 0.194000 0.293146 -0.040499
v 0.196160 0.284237 0.053272
v 0.201515 0.284509 0.052762
v 0.199354 0.293417 -0.041009
v 0.085182 0.336579 0.019364
v 0.086026 0.323364 0.043309
v 0.191674 0.323030 0.039404
v 0.191941 0.336320 0.015347
v 0.086474 0.299939 0.057443
v 0.192122 0.299606 0.053539
v 0.086407 0.272582 0.057982
v 0.192045 0.272249 0.054076
v 0.085844 0.248623 0.044778
v 0.190935 0.248290 0.040873
v 0.084934 0.234481 0.021370
v 0.189894 0.234148 0.017466
v 0.083922 0.233946 -0.005968
v 0.189465 0.233613 -0.009873
v 0.083079 0.247162 -0.029913
v 0.188684 0.246829 -0.033818
v 0.082630 0.270586 -0.044047
v 0.188278 0.270253 -0.047953
v 0.082697 0.297944 -0.044585
v 0.188345 0.297610 -0.048490
v 0.083260 0.321903 -0.031381
v 0.188961 0.321570 -0.035286
v 0.084170 0.336045 -0.007974
v 0.191091 0.335780 -0.011883
v 0.200272 0.156734 -0.178992
v 0.209248 0.498067 0.020517
v -0.181199 0.137745 -0.173727
v 0.205590 0.193620 -0.235537
v -0.184779 0.174631 -0.230272
v 0.209100 0.534196 -0.038132
v -0.184866 0.496675 0.029993
v -0.185282 0.534772 -0.028827
v 0.187215 0.119298 0.133275
v 0.183833 0.118509 0.133510
v 0.188070 0.120213 0.074500
v 0.191463 0.121002 0.074264
v 0.187874 0.123493 0.074658
v 0.183717 0.121788 0.133668
v 0.187097 0.122578 0.133433
v 0.191262 0.124282 0.074422
v -0.177838 0.134791 0.164088
v -0.185693 0.524696 -0.033373
v 0.209789 0.520521 -0.034627
v 0.199670 0.151208 0.161212
v 0.208987 0.548710 0.027847
v -0.187964 0.552215 0.032086
v -0.180229 0.163234 0.225375
v 0.205904 0.179651 0.222499
v -0.193368 0.467947 0.001917
v -0.190617 0.533318 -0.061256
v 0.223878 0.529937 -0.070466
v 0.221940 0.463464 -0.008425
v 0.226578 0.592004 -0.007839
v -0.189719 0.596510 0.000287
v -0.192470 0.531139 0.063459
v 0.224639 0.525530 0.054202
v 0.188961 0.171001 -0.068106
v 0.131582 0.162797 -0.070266
v 0.130919 0.066248 -0.072758
v 0.186710 0.074453 -0.070599
v 0.125919 0.068037 -0.131433
v 0.129428 0.164586 -0.128940
v 0.186614 0.172790 -0.126781
v 0.182179 0.076241 -0.129273
v 0.185645 0.173719 0.133852
v 0.129140 0.163905 0.132733
v 0.127870 0.062583 0.130774
v 0.183108 0.072397 0.131894
v 0.133161 0.063874 0.072061
v 0.132720 0.165196 0.074020
v 0.189402 0.175010 0.075141
v 0.188037 0.073688 0.073182
v 0.197061 0.172563 0.045062
v 0.106686 0.159268 0.047729
v 0.113419 0.005039 0.045098
v 0.197774 0.005039 0.042431
v 0.114263 0.005039 -0.048827
v 0.105928 0.160349 -0.046196
v 0.196778 0.173644 -0.048862
v 0.199219 0.005039 -0.051494
v 0.188317 0.166720 0.130667
v 0.139520 0.159049 0.130013
v 0.136661 0.071914 0.127711
v 0.184711 0.079585 0.128366
v 0.140882 0.073313 0.077338
v 0.142472 0.160449 0.079640
v 0.191377 0.168120 0.080294
v 0.188683 0.080984 0.077993
v 0.101898 0.311738 -0.027537
v 0.101484 0.324560 -0.006872
v 0.196023 0.329395 -0.007958
v 0.195745 0.316512 -0.028621
v 0.101725 0.325349 0.017435
v 0.196130 0.330170 0.016351
v 0.102556 0.313893 0.038875
v 0.196402 0.318666 0.037790
v 0.103753 0.293262 0.051700
v 0.197600 0.298036 0.050615
v 0.104997 0.268984 0.052476
v 0.198842 0.273757 0.051391
v 0.105954 0.247564 0.040993
v 0.199409 0.252338 0.039908
v 0.106365 0.234742 0.020329
v 0.199691 0.239516 0.019245
v 0.106127 0.233953 -0.003979
v 0.199883 0.238727 -0.005064
v 0.105296 0.245409 -0.025418
v 0.199143 0.250183 -0.026503
v 0.104098 0.266041 -0.038244
v 0.197944 0.270814 -0.039329
v 0.102855 0.290318 -0.039019
v 0.196701 0.295092 -0.040104
v 0.189552 0.168646 -0.070708
v 0.136596 0.160793 -0.073098
v 0.135911 0.072029 -0.076212
v 0.187772 0.079883 -0.073821
v 0.131800 0.074233 -0.130189
v 0.134870 0.162997 -0.127075
v 0.187717 0.170850 -0.124685
v 0.184091 0.082086 -0.127798
v 0.209581 0.104676 -0.017752
v 0.186058 0.101377 -0.017300
v 0.186332 0.078117 -0.017492
v 0.209906 0.081416 -0.017944
v 0.181418 0.078243 -0.040981
v 0.181685 0.101503 -0.040788
v 0.205235 0.104803 -0.041240
v 0.204989 0.081543 -0.041433
v 0.180075 0.223272 0.156142
v -0.171597 0.001898 0.145077
v 0.180281 0.001898 0.146037
v -0.181117 0.001898 -0.177136
v 0.172273 0.236253 -0.166071
v 0.170975 0.001898 -0.176176
v -0.160051 0.474726 0.004237
v -0.160287 0.194654 0.157329
v -0.169807 0.207636 -0.164884
v 0.198456 0.489508 0.014571
vt 0.7624 0.8387
vt 0.7629 0.8387
vt 0.7629 0.8480
vt 0.7624 0.8480
vt 0.7641 0.9048
vt 0.7641 0.8956
vt 0.7646 0.8956
vt 0.7646 0.9049
vt 0.9242 0.9101
vt 0.9248 0.9101
vt 0.9248 0.9106
vt 0.9242 0.9106
vt 0.9262 0.6784
vt 0.9267 0.6784
vt 0.9267 0.6790
vt 0.9262 0.6790
vt 0.0577 0.9254
vt 0.0577 0.9346
vt 0.0571 0.9346
vt 0.0571 0.9254
vt 0.0034 0.9435
vt 0.0028 0.9435
vt 0.0028 0.9346
vt 0.0034 0.9346
vt 0.8713 0.9153
vt 0.8721 0.9153
vt 0.8721 0.9299
vt 0.8713 0.9299
vt 0.9332 0.4439
vt 0.9332 0.4293
vt 0.9340 0.4293
vt 0.9340 0.4439
vt 0.7826 0.7503
vt 0.7818 0.7503
vt 0.7818 0.7495
vt 0.7826 0.7495
vt 0.9425 0.6123
vt 0.9425 0.6114
vt 0.9433 0.6114
vt 0.9433 0.6123
vt 0.2553 0.8983
vt 0.2553 0.9131
vt 0.2545 0.9131
vt 0.2545 0.8983
vt 0.0186 0.9242
vt 0.0178 0.9242
vt 0.0178 0.9094
vt 0.0186 0.9094
vt 0.3090 0.8984
vt 0.3098 0.8983
vt 0.3098 0.9130
vt 0.3090 0.9131
vt 0.8391 0.9206
vt 0.8391 0.9059
vt 0.8400 0.9060
vt 0.8400 0.9207
vt 0.7567 0.6360
vt 0.7576 0.6360
vt 0.7576 0.6369
vt 0.7567 0.6369
vt 0.7759 0.7503
vt 0.7759 0.7495
vt 0.7768 0.7495
vt 0.7768 0.7503
vt 0.8561 0.8846
vt 0.8561 0.8994
vt 0.8553 0.8993
vt 0.8553 0.8846
vt 0.2545 0.9181
vt 0.2554 0.9181
vt 0.2554 0.9326
vt 0.2545 0.9326
vt 0.2435 0.7865
vt 0.2434 0.7828
vt 0.2601 0.7828
vt 0.2601 0.7865
vt 0.7859 0.4016
vt 0.7897 0.4014
vt 0.7897 0.4179
vt 0.7859 0.4181
vt 0.7940 0.4014
vt 0.7940 0.4179
vt 0.7977 0.4017
vt 0.7977 0.4182
vt 0.6057 0.7821
vt 0.6095 0.7820
vt 0.6095 0.7986
vt 0.6057 0.7987
vt 0.6138 0.7820
vt 0.6138 0.7986
vt 0.6175 0.7821
vt 0.6175 0.7987
vt 0.7810 0.8018
vt 0.7773 0.8018
vt 0.7773 0.7852
vt 0.7810 0.7852
vt 0.7730 0.8018
vt 0.7730 0.7852
vt 0.7693 0.8018
vt 0.7693 0.7852
vt 0.2434 0.7945
vt 0.2435 0.7908
vt 0.2601 0.7908
vt 0.2601 0.7945
vt 0.6867 0.7853
vt 0.6867 0.7810
vt 0.6889 0.7773
vt 0.6926 0.7751
vt 0.6969 0.7751
vt 0.7006 0.7773
vt 0.7028 0.7810
vt 0.7028 0.7853
vt 0.7006 0.7890
vt 0.6969 0.7912
vt 0.6926 0.7912
vt 0.6889 0.7890
vt 0.2951 0.7912
vt 0.2915 0.7891
vt 0.2893 0.7853
vt 0.2893 0.7810
vt 0.2915 0.7773
vt 0.2951 0.7752
vt 0.2993 0.7752
vt 0.3030 0.7774
vt 0.3051 0.7811
vt 0.3051 0.7854
vt 0.3030 0.7891
vt 0.2993 0.7913
vt 0.4421 0.3946
vt 0.4961 0.4014
vt 0.4424 0.4568
vt 0.4742 0.1728
vt 0.4744 0.1099
vt 0.5292 0.1703
vt 0.7074 0.2563
vt 0.6968 0.2561
vt 0.6968 0.1908
vt 0.7074 0.1910
vt 0.4813 0.7123
vt 0.4813 0.6474
vt 0.4918 0.6471
vt 0.4918 0.7120
vt 0.7186 0.3999
vt 0.7186 0.3371
vt 0.7274 0.3368
vt 0.7274 0.3997
vt 0.7297 0.1296
vt 0.7209 0.1293
vt 0.7209 0.0673
vt 0.7297 0.0676
vt 0.4961 0.4629
vt 0.5292 0.1082
vt 0.6752 0.8937
vt 0.6747 0.8937
vt 0.6747 0.8845
vt 0.6752 0.8844
vt 0.5789 0.9078
vt 0.5789 0.8985
vt 0.5795 0.8985
vt 0.5795 0.9078
vt 0.6637 0.4513
vt 0.6642 0.4513
vt 0.6642 0.4518
vt 0.6637 0.4518
vt 0.9245 0.4288
vt 0.9250 0.4288
vt 0.9250 0.4294
vt 0.9245 0.4294
vt 0.7641 0.9191
vt 0.7641 0.9099
vt 0.7646 0.9099
vt 0.7646 0.9191
vt 0.1358 0.9286
vt 0.1363 0.9287
vt 0.1363 0.9377
vt 0.1358 0.9377
vt 0.4147 0.0031
vt 0.4747 0.0025
vt 0.4747 0.0649
vt 0.4147 0.0654
vt 0.2948 0.4072
vt 0.2948 0.4689
vt 0.2341 0.4711
vt 0.2341 0.4095
vt 0.7001 0.4093
vt 0.7107 0.4092
vt 0.7107 0.4747
vt 0.7001 0.4748
vt 0.7031 0.5772
vt 0.7031 0.5118
vt 0.7134 0.5120
vt 0.7134 0.5775
vt 0.7254 0.4095
vt 0.7254 0.4719
vt 0.7157 0.4716
vt 0.7157 0.4092
vt 0.7222 0.2532
vt 0.7125 0.2536
vt 0.7125 0.1912
vt 0.7222 0.1908
vt 0.7004 0.7001
vt 0.6900 0.6993
vt 0.6898 0.6341
vt 0.7004 0.6347
vt 0.1969 0.2929
vt 0.1970 0.2281
vt 0.2077 0.2262
vt 0.2077 0.2912
vt 0.7186 0.2596
vt 0.7324 0.2591
vt 0.7324 0.2734
vt 0.7186 0.2738
vt 0.7406 0.2729
vt 0.7406 0.2588
vt 0.7542 0.2596
vt 0.7542 0.2737
vt 0.7135 0.2662
vt 0.7135 0.3318
vt 0.7037 0.3314
vt 0.7035 0.2661
vt 0.7037 0.3373
vt 0.7136 0.3368
vt 0.7136 0.4023
vt 0.7035 0.4024
vt 0.8265 0.7585
vt 0.8174 0.7585
vt 0.8174 0.7432
vt 0.8265 0.7431
vt 0.8169 0.0431
vt 0.8169 0.0278
vt 0.8261 0.0278
vt 0.8261 0.0432
vt 0.8572 0.4416
vt 0.8572 0.4323
vt 0.8664 0.4324
vt 0.8664 0.4416
vt 0.3591 0.8641
vt 0.3683 0.8640
vt 0.3683 0.8732
vt 0.3591 0.8733
vt 0.8260 0.0483
vt 0.8260 0.0636
vt 0.8169 0.0634
vt 0.8169 0.0482
vt 0.8184 0.4017
vt 0.8273 0.4014
vt 0.8273 0.4166
vt 0.8184 0.4169
vt 0.8236 0.6715
vt 0.8146 0.6715
vt 0.8146 0.6554
vt 0.8236 0.6553
vt 0.8114 0.7908
vt 0.8114 0.7746
vt 0.8206 0.7746
vt 0.8206 0.7908
vt 0.5272 0.8643
vt 0.5272 0.8735
vt 0.5181 0.8735
vt 0.5181 0.8642
vt 0.4596 0.8643
vt 0.4687 0.8643
vt 0.4687 0.8735
vt 0.4596 0.8736
vt 0.8235 0.7960
vt 0.8235 0.8120
vt 0.8143 0.8118
vt 0.8143 0.7958
vt 0.0914 0.8077
vt 0.1004 0.8073
vt 0.1004 0.8233
vt 0.0914 0.8236
vt 0.5138 0.7608
vt 0.4991 0.7609
vt 0.4991 0.7345
vt 0.5138 0.7344
vt 0.5282 0.7581
vt 0.5282 0.7317
vt 0.5429 0.7317
vt 0.5429 0.7581
vt 0.5447 0.3746
vt 0.5447 0.3894
vt 0.5300 0.3893
vt 0.5300 0.3746
vt 0.5935 0.3859
vt 0.6082 0.3858
vt 0.6082 0.4006
vt 0.5935 0.4006
vt 0.1202 0.7342
vt 0.1202 0.7605
vt 0.1055 0.7604
vt 0.1055 0.7342
vt 0.3312 0.7364
vt 0.3456 0.7361
vt 0.3456 0.7623
vt 0.3312 0.7626
vt 0.3562 0.3224
vt 0.3049 0.2844
vt 0.3605 0.2869
vt 0.2813 0.1272
vt 0.3171 0.1812
vt 0.2814 0.1836
vt 0.3051 0.3640
vt 0.3024 0.3205
vt 0.1555 0.3779
vt 0.1555 0.3424
vt 0.2062 0.3427
vt 0.2062 0.3783
vt 0.2052 0.4195
vt 0.1555 0.4199
vt 0.1555 0.3838
vt 0.2052 0.3833
vt 0.3176 0.1267
vt 0.3579 0.1283
vt 0.3605 0.3664
vt 0.1865 0.3000
vt 0.3579 0.1847
vt 0.1838 0.4615
vt 0.8422 0.6575
vt 0.8500 0.6574
vt 0.8500 0.6713
vt 0.8422 0.6713
vt 0.8475 0.3464
vt 0.8475 0.3603
vt 0.8396 0.3603
vt 0.8396 0.3464
vt 0.8023 0.8925
vt 0.8023 0.8846
vt 0.8101 0.8846
vt 0.8101 0.8925
vt 0.6090 0.8847
vt 0.6169 0.8847
vt 0.6169 0.8926
vt 0.6090 0.8926
vt 0.8403 0.2024
vt 0.8403 0.1886
vt 0.8482 0.1887
vt 0.8482 0.2025
vt 0.8152 0.8372
vt 0.8229 0.8369
vt 0.8229 0.8506
vt 0.8152 0.8509
vt 0.8192 0.0227
vt 0.8159 0.0228
vt 0.8159 0.0080
vt 0.8192 0.0079
vt 0.8121 0.0228
vt 0.8121 0.0080
vt 0.8088 0.0227
vt 0.8088 0.0079
vt 0.8086 0.4565
vt 0.8120 0.4562
vt 0.8120 0.4708
vt 0.8086 0.4711
vt 0.8158 0.4562
vt 0.8158 0.4708
vt 0.8191 0.4565
vt 0.8191 0.4711
vt 0.8200 0.6161
vt 0.8167 0.6161
vt 0.8167 0.6013
vt 0.8200 0.6013
vt 0.8129 0.6161
vt 0.8129 0.6013
vt 0.8095 0.6161
vt 0.8095 0.6013
vt 0.8199 0.2059
vt 0.8167 0.2058
vt 0.8167 0.1911
vt 0.8199 0.1911
vt 0.8128 0.2058
vt 0.8128 0.1911
vt 0.8095 0.2059
vt 0.8095 0.1911
vt 0.1971 0.7957
vt 0.1933 0.7957
vt 0.1900 0.7938
vt 0.1881 0.7904
vt 0.1881 0.7866
vt 0.1900 0.7833
vt 0.1933 0.7814
vt 0.1971 0.7814
vt 0.2004 0.7833
vt 0.2023 0.7866
vt 0.2023 0.7904
vt 0.2004 0.7937
vt 0.2138 0.7906
vt 0.2138 0.7868
vt 0.2157 0.7835
vt 0.2189 0.7815
vt 0.2227 0.7815
vt 0.2259 0.7834
vt 0.2278 0.7867
vt 0.2278 0.7905
vt 0.2259 0.7939
vt 0.2227 0.7958
vt 0.2189 0.7958
vt 0.2157 0.7939
vt 0.8324 0.2499
vt 0.8407 0.2498
vt 0.8407 0.2639
vt 0.8324 0.2640
vt 0.6242 0.8369
vt 0.6242 0.8228
vt 0.6327 0.8228
vt 0.6327 0.8369
vt 0.2604 0.8890
vt 0.2604 0.8805
vt 0.2688 0.8806
vt 0.2688 0.8890
vt 0.5348 0.8806
vt 0.5433 0.8805
vt 0.5433 0.8890
vt 0.5348 0.8891
vt 0.8287 0.6714
vt 0.8287 0.6574
vt 0.8371 0.6575
vt 0.8371 0.6715
vt 0.8349 0.5931
vt 0.8431 0.5927
vt 0.8431 0.6067
vt 0.8349 0.6070
vt 0.1309 0.9514
vt 0.1272 0.9514
vt 0.1272 0.9477
vt 0.1309 0.9477
vt 0.4014 0.1897
vt 0.4014 0.1934
vt 0.3977 0.1934
vt 0.3977 0.1897
vt 0.8214 0.3485
vt 0.8214 0.3522
vt 0.8178 0.3522
vt 0.8178 0.3485
vt 0.4499 0.9477
vt 0.4535 0.9476
vt 0.4535 0.9513
vt 0.4499 0.9514
vt 0.9356 0.2980
vt 0.9393 0.2979
vt 0.9393 0.3016
vt 0.9356 0.3016
vt 0.1143 0.9477
vt 0.1179 0.9476
vt 0.1179 0.9512
vt 0.1143 0.9513
vn 0.1913 -0.9803 -0.0493
vn -0.1914 0.9803 0.0490
vn -0.0214 0.0487 -0.9986
vn 0.0216 -0.0480 0.9986
vn 0.9988 0.0225 -0.0437
vn -0.9988 -0.0217 0.0444
vn 0.0912 0.1464 -0.9850
vn -0.0918 -0.1465 0.9849
vn -0.0999 0.9826 0.1568
vn 0.0984 -0.9830 -0.1548
vn 0.9931 -0.0060 0.1173
vn -0.9932 0.0053 -0.1165
vn 0.0414 -0.9946 -0.0954
vn -0.0414 0.9946 0.0954
vn -0.0997 0.1095 -0.9890
vn 0.0997 -0.1094 0.9890
vn 0.9989 0.0420 -0.0190
vn -0.9989 -0.0420 0.0190
vn 0.0205 0.8753 0.4831
vn 0.0332 0.5168 0.8554
vn 0.0370 0.0195 0.9991
vn 0.0309 -0.4832 0.8749
vn 0.0165 -0.8561 0.5165
vn -0.0024 -0.9998 0.0196
vn -0.0206 -0.8756 -0.4826
vn -0.0333 -0.5168 -0.8555
vn -0.0370 -0.0195 -0.9991
vn -0.0308 0.4830 -0.8751
vn -0.0166 0.8557 -0.5172
vn 0.0017 0.9998 -0.0198
vn 0.9993 -0.0142 -0.0348
vn -0.9993 0.0032 0.0369
vn 0.0370 -0.5050 0.8623
vn -0.0361 0.5014 -0.8644
vn 0.9992 -0.0324 0.0243
vn -0.9996 -0.0185 0.0226
vn 0.0338 -0.8373 -0.5457
vn 0.0118 0.8453 0.5341
vn 0.0227 -0.4933 0.8696
vn -0.0199 0.4881 -0.8726
vn 0.2262 -0.9740 -0.0119
vn -0.2264 0.9740 0.0122
vn -0.0794 0.0431 -0.9959
vn 0.0798 -0.0450 0.9958
vn 0.9964 0.0450 0.0723
vn -0.9964 -0.0440 -0.0721
vn 0.0025 -0.4600 -0.8879
vn 0.0006 0.4556 0.8902
vn 0.9990 -0.0331 -0.0287
vn -0.9992 -0.0315 -0.0229
vn 0.0421 -0.9068 0.4195
vn 0.0061 0.9169 -0.3991
vn -0.0236 -0.6880 -0.7253
vn 0.0235 0.6880 0.7253
vn 0.9993 -0.0360 -0.0074
vn -0.9995 0.0282 -0.0144
vn 0.0082 -0.7041 0.7100
vn -0.0081 0.7041 -0.7100
vn -0.0345 -0.0253 0.9991
vn 0.0345 0.0244 -0.9991
vn 0.1463 -0.9883 -0.0420
vn -0.1430 0.9891 0.0356
vn 0.9977 -0.0330 -0.0595
vn -0.9979 0.0200 0.0614
vn -0.0167 -0.0190 0.9997
vn 0.0167 0.0192 -0.9997
vn 0.1756 -0.9844 -0.0064
vn -0.1711 0.9852 0.0110
vn 0.9971 -0.0206 0.0733
vn -0.9972 0.0055 -0.0752
vn 0.0317 -0.0156 0.9994
vn -0.0315 0.0152 -0.9994
vn 0.0000 -1.0000 0.0000
vn -0.1448 0.9894 0.0122
vn 0.9999 0.0093 0.0062
vn -0.9988 -0.0486 -0.0007
vn -0.0027 -0.0456 0.9990
vn 0.0027 0.0431 -0.9991
vn -0.0372 0.4793 0.8768
vn 0.9996 -0.0012 -0.0266
vn -0.9980 0.0548 0.0306
vn -0.0477 0.5356 -0.8431
vn -0.0448 0.4714 0.8808
vn 0.9961 -0.0834 -0.0275
vn -0.0005 0.5807 -0.8141
vn -0.9994 0.0174 0.0302
vn 0.0089 -0.0639 0.9979
vn -0.0085 0.0599 -0.9982
vn -0.0094 -0.0260 0.9996
vn 0.0094 0.0262 -0.9996
vn 0.1582 -0.9873 -0.0146
vn -0.1553 0.9877 0.0182
vn 0.9969 -0.0379 0.0685
vn -0.9972 0.0273 -0.0702
vn -0.0493 0.8480 -0.5276
vn -0.0514 0.9982 -0.0317
vn -0.0394 0.8805 0.4725
vn -0.0170 0.5272 0.8496
vn 0.0099 0.0324 0.9994
vn 0.0342 -0.4713 0.8813
vn 0.0495 -0.8483 0.5272
vn 0.0513 -0.9982 0.0323
vn 0.0394 -0.8807 -0.4720
vn 0.0170 -0.5272 -0.8496
vn -0.0099 -0.0324 -0.9994
vn -0.0341 0.4710 -0.8815
vn 0.9990 0.0435 -0.0098
vn -0.9986 -0.0508 0.0115
vn -0.0404 -0.0345 0.9986
vn 0.0404 0.0335 -0.9986
vn 0.1512 -0.9872 -0.0512
vn -0.1487 0.9878 0.0452
vn 0.9982 -0.0286 -0.0522
vn -0.9983 0.0192 0.0548
vn 0.0203 -0.0080 0.9998
vn -0.0204 0.0085 -0.9998
vn 0.1379 -0.9899 -0.0342
vn -0.1382 0.9899 0.0310
vn 0.9811 0.0032 -0.1934
vn -0.9810 -0.0018 0.1939
usemtl mat20.002
s off
f 1/1/1 2/2/1 3/3/1 4/4/1
f 5/5/2 6/6/2 7/7/2 8/8/2
f 3/9/3 5/10/3 8/11/3 4/12/3
f 7/13/4 6/14/4 2/15/4 1/16/4
f 8/17/5 7/18/5 1/19/5 4/20/5
f 2/21/6 6/22/6 5/23/6 3/24/6
f 9/25/7 10/26/7 11/27/7 12/28/7
f 13/29/8 14/30/8 15/31/8 16/32/8
f 11/33/9 13/34/9 16/35/9 12/36/9
f 15/37/10 14/38/10 10/39/10 9/40/10
f 16/41/11 15/42/11 9/43/11 12/44/11
f 10/45/12 14/46/12 13/47/12 11/48/12
f 17/49/13 18/50/13 19/51/13 20/52/13
f 21/53/14 22/54/14 23/55/14 24/56/14
f 19/57/15 21/58/15 24/59/15 20/60/15
f 23/61/16 22/62/16 18/63/16 17/64/16
f 24/65/17 23/66/17 17/67/17 20/68/17
f 18/69/18 22/70/18 21/71/18 19/72/18
f 25/73/19 26/74/19 27/75/19 28/76/19
f 26/77/20 29/78/20 30/79/20 27/80/20
f 29/78/21 31/81/21 32/82/21 30/79/21
f 31/81/22 33/83/22 34/84/22 32/82/22
f 33/85/23 35/86/23 36/87/23 34/88/23
f 35/86/24 37/89/24 38/90/24 36/87/24
f 37/89/25 39/91/25 40/92/25 38/90/25
f 39/93/26 41/94/26 42/95/26 40/96/26
f 41/94/27 43/97/27 44/98/27 42/95/27
f 43/97/28 45/99/28 46/100/28 44/98/28
f 45/101/29 47/102/29 48/103/29 46/104/29
f 47/102/30 25/73/30 28/76/30 48/103/30
f 28/105/31 27/106/31 30/107/31 32/108/31 34/109/31 36/110/31 38/111/31 40/112/31 42/113/31 44/114/31 46/115/31 48/116/31
f 47/117/32 45/118/32 43/119/32 41/120/32 39/121/32 37/122/32 35/123/32 33/124/32 31/125/32 29/126/32 26/127/32 25/128/32
f 49/129/33 50/130/33 51/131/33
f 52/132/34 53/133/34 54/134/34
f 49/135/35 52/136/35 54/137/35 50/138/35
f 51/139/36 55/140/36 56/141/36 53/142/36
f 49/143/37 51/144/37 53/145/37 52/146/37
f 50/147/38 54/148/38 56/149/38 55/150/38
f 50/130/39 55/151/39 51/131/39
f 53/133/40 56/152/40 54/134/40
f 57/153/41 58/154/41 59/155/41 60/156/41
f 61/157/42 62/158/42 63/159/42 64/160/42
f 59/161/43 61/162/43 64/163/43 60/164/43
f 63/165/44 62/166/44 58/167/44 57/168/44
f 64/169/45 63/170/45 57/171/45 60/172/45
f 58/173/46 62/174/46 61/175/46 59/176/46
f 65/177/47 66/178/47 67/179/47 68/180/47
f 69/181/48 70/182/48 71/183/48 72/184/48
f 67/185/49 69/186/49 72/187/49 68/188/49
f 71/189/50 70/190/50 66/191/50 65/192/50
f 72/193/51 71/194/51 65/195/51 68/196/51
f 66/197/52 70/198/52 69/199/52 67/200/52
f 73/201/53 74/202/53 75/203/53 76/204/53
f 77/205/54 78/206/54 79/207/54 80/208/54
f 75/209/55 77/210/55 80/211/55 76/212/55
f 79/213/56 78/214/56 74/215/56 73/216/56
f 80/217/57 79/218/57 73/219/57 76/220/57
f 74/221/58 78/222/58 77/223/58 75/224/58
f 81/225/59 82/226/59 83/227/59 84/228/59
f 85/229/60 86/230/60 87/231/60 88/232/60
f 83/233/61 85/234/61 88/235/61 84/236/61
f 87/237/62 86/238/62 82/239/62 81/240/62
f 88/241/63 87/242/63 81/243/63 84/244/63
f 82/245/64 86/246/64 85/247/64 83/248/64
f 89/249/65 90/250/65 91/251/65 92/252/65
f 93/253/66 94/254/66 95/255/66 96/256/66
f 91/257/67 93/258/67 96/259/67 92/260/67
f 95/261/68 94/262/68 90/263/68 89/264/68
f 96/265/69 95/266/69 89/267/69 92/268/69
f 90/269/70 94/270/70 93/271/70 91/272/70
f 97/273/71 98/274/71 99/275/71 100/276/71
f 101/277/72 102/278/72 103/279/72 104/280/72
f 99/281/73 101/282/73 104/283/73 100/284/73
f 103/285/74 102/286/74 98/287/74 97/288/74
f 104/289/75 103/290/75 97/291/75 100/292/75
f 98/293/76 102/294/76 101/295/76 99/296/76
usemtl mat5.002
f 153/297/77 154/298/77 155/299/77
f 156/300/78 157/301/78 158/302/78
f 159/303/79 160/304/79 153/297/79
f 158/305/80 157/306/80 153/307/80 155/308/80
f 160/309/81 161/310/81 156/311/81 154/312/81
f 157/301/82 161/313/82 159/314/82
f 153/297/83 162/315/83 159/303/83
f 157/306/84 162/316/84 153/307/84
f 159/314/85 162/317/85 157/301/85
f 160/309/86 159/318/86 161/310/86
f 153/297/87 160/304/87 154/298/87
f 156/300/88 161/313/88 157/301/88
f 158/305/73 155/308/73 154/298/73 156/311/73
usemtl mat4.002
f 105/319/89 106/320/89 107/321/89 108/322/89
f 109/323/90 110/324/90 111/325/90 112/326/90
f 107/327/91 109/328/91 112/329/91 108/330/91
f 111/331/92 110/332/92 106/333/92 105/334/92
f 112/335/93 111/336/93 105/337/93 108/338/93
f 106/339/94 110/340/94 109/341/94 107/342/94
f 113/343/95 114/344/95 115/345/95 116/346/95
f 114/344/96 117/347/96 118/348/96 115/345/96
f 117/347/97 119/349/97 120/350/97 118/348/97
f 119/351/98 121/352/98 122/353/98 120/354/98
f 121/352/99 123/355/99 124/356/99 122/353/99
f 123/355/100 125/357/100 126/358/100 124/356/100
f 125/359/101 127/360/101 128/361/101 126/362/101
f 127/360/102 129/363/102 130/364/102 128/361/102
f 129/363/103 131/365/103 132/366/103 130/364/103
f 131/367/104 133/368/104 134/369/104 132/370/104
f 133/368/105 135/371/105 136/372/105 134/369/105
f 135/371/106 113/373/106 116/374/106 136/372/106
f 116/375/107 115/376/107 118/377/107 120/378/107 122/379/107 124/380/107 126/381/107 128/382/107 130/383/107 132/384/107 134/385/107 136/386/107
f 135/387/108 133/388/108 131/389/108 129/390/108 127/391/108 125/392/108 123/393/108 121/394/108 119/395/108 117/396/108 114/397/108 113/398/108
f 137/399/109 138/400/109 139/401/109 140/402/109
f 141/403/110 142/404/110 143/405/110 144/406/110
f 139/407/111 141/408/111 144/409/111 140/410/111
f 143/411/112 142/412/112 138/413/112 137/414/112
f 144/415/113 143/416/113 137/417/113 140/418/113
f 138/419/114 142/420/114 141/421/114 139/422/114
usemtl mat12.002
f 145/423/115 146/424/115 147/425/115 148/426/115
f 149/427/116 150/428/116 151/429/116 152/430/116
f 147/431/117 149/432/117 152/433/117 148/434/117
f 151/435/118 150/436/118 146/437/118 145/438/118
f 152/439/119 151/440/119 145/441/119 148/442/119
f 146/443/120 150/444/120 149/445/120 147/446/120
